<svg xmlns="http://www.w3.org/2000/svg" viewBox="0 0 288.28 547.35"><defs><style>.cls-1{fill:#d4d7db;stroke-width:5.5px;}.cls-1,.cls-6,.cls-7{stroke:#e3e4e9;}.cls-1,.cls-4,.cls-5,.cls-6,.cls-7{stroke-miterlimit:10;}.cls-2{fill:#446560;}.cls-3{fill:#336153;}.cls-4{fill:#acb1b0;}.cls-4,.cls-5{stroke:#dbe0e4;}.cls-4,.cls-5,.cls-7{stroke-width:2px;}.cls-5{fill:#989d9c;}.cls-6{fill:none;}.cls-7{fill:#868c8c;}</style></defs><g id="Слой_2" data-name="Слой 2"><g id="figure-3"><path class="cls-1" d="M27.18,32.59H261.11a10,10,0,0,1,10,10V61a0,0,0,0,1,0,0H17.18a0,0,0,0,1,0,0V42.59A10,10,0,0,1,27.18,32.59Z"/><path class="cls-2" d="M54.06,10.32H234.23a10,10,0,0,1,10,10V27a0,0,0,0,1,0,0H44.06a0,0,0,0,1,0,0V20.32A10,10,0,0,1,54.06,10.32Z"/><polygon class="cls-3" points="286.8 546.35 1.48 546.35 70.2 376.29 218.08 376.29 286.8 546.35"/><path class="cls-4" d="M223.39,389.43H64.89l5.31-13.1c49.3-.35,121.58.42,147.88,0Z"/><path class="cls-5" d="M286.8,546.35H1.48l5.3-13.11c88.74-.34,227.37.43,274.72,0Z"/><line class="cls-6" x1="8.54" y1="528.89" x2="279.75" y2="528.89"/><path class="cls-7" d="M167.13,524.63h-46a9.71,9.71,0,0,1-9.71-9.71V502.39a53.65,53.65,0,0,0,65.41,0v12.53A9.72,9.72,0,0,1,167.13,524.63Z"/><rect class="cls-2" x="132.99" width="22.3" height="20.65" rx="10.32"/><rect class="cls-4" x="86.01" y="408.73" width="116.27" height="57.19" rx="10"/></g></g></svg>